Coordinates
version=1
nRows=17
nColumns=36
inDegrees=yes

Units are S.I. units (second, meters, Newtons, ...)
If the header above contains a line with 'inDegrees', this indicates whether rotational values are in degrees (yes) or radians (no).

endheader
time	pelvis_tilt	pelvis_list	pelvis_rotation	pelvis_tx	pelvis_ty	pelvis_tz	hip_flexion_r	hip_adduction_r	hip_rotation_r	knee_angle_r	knee_angle_r_beta	ankle_angle_r	subtalar_angle_r	mtp_angle_r	hip_flexion_l	hip_adduction_l	hip_rotation_l	knee_angle_l	knee_angle_l_beta	ankle_angle_l	subtalar_angle_l	mtp_angle_l	lumbar_extension	lumbar_bending	lumbar_rotation	arm_flex_r	arm_add_r	arm_rot_r	elbow_flex_r	pro_sup_r	arm_flex_l	arm_add_l	arm_rot_l	elbow_flex_l	pro_sup_l
     45.55000000	     -5.72946943	     -2.36398945	     -3.37284760	      1.11915802	      0.90507932	      0.71552566	     30.36916145	      0.88803043	      2.90568063	      9.31163911	      0.16251876	      7.98194025	      5.65622790	     -7.49999987	     -2.82881645	     -2.39321762	     -0.86633158	     18.43172055	      0.32169421	     21.16986055	     -4.78884124	     -7.49999987	     -9.49544808	      3.77693551	     -2.94999853	      4.25418042	    -12.44078665	     10.62035631	     22.74915880	     84.91888543	     12.28862469	     -9.66921812	     13.63054929	     28.23820431	     81.94666850
     45.56666670	     -5.24287198	     -2.95793204	     -3.23134618	      1.12276003	      0.90483619	      0.71781474	     29.14687907	      1.83322456	      3.70798813	      9.89974305	      0.17278311	      6.10750325	      4.83123180	     -7.49999987	     -4.20316442	     -3.26693294	     -1.55018182	     19.10164929	      0.33338667	     21.36105258	     -4.14385909	     -7.49999987	     -9.30687561	      4.46691329	     -2.84162940	      3.94625809	    -12.68786092	     10.30365599	     22.98095660	     85.03100601	     12.25420024	     -8.94564749	     12.59297102	     26.87854843	     81.60661813
     45.58333330	     -5.00490252	     -3.28991805	     -3.16918669	      1.12571167	      0.90435093	      0.71910768	     28.43825124	      2.53161369	      4.14747228	     11.13835372	      0.19440095	      4.81595412	      4.90991762	     -7.49999987	     -5.03029370	     -3.85074341	     -2.00900123	     20.19844633	      0.35252939	     20.98477056	     -4.30111379	     -7.49999987	     -8.88152599	      4.84350434	     -2.70257795	      3.73336922	    -12.88884127	     10.19119051	     23.05129083	     85.05319623	     11.81232338	     -8.56448067	     12.26267935	     26.38389230	     81.49244874
     45.60000000	     -4.64584458	     -3.66190212	     -3.10782536	      1.12737225	      0.90420447	      0.71950685	     27.57164233	      3.27248680	      4.94556091	     12.29238399	      0.21454257	      3.34514584	      3.91402011	     -7.49999987	     -5.71040402	     -4.53702270	     -2.54182844	     21.81869337	      0.38080804	     20.51197330	     -4.34582819	     -7.49999987	     -8.63382118	      5.25339803	     -2.15182923	      3.27908111	    -13.22778058	      9.97466658	     23.34155495	     85.13807639	     11.82609071	     -7.63538748	     10.71593158	     24.75671568	     81.03230125
     45.61666670	     -4.41263174	     -3.96890848	     -3.12461384	      1.12771149	      0.90459016	      0.71987980	     26.95493819	      3.85794573	      5.29999919	     13.51820259	      0.23593714	      2.77670281	      3.79510618	     -7.49999987	     -5.92510724	     -5.14983905	     -2.86925893	     23.93185015	      0.41768958	     19.75345034	     -4.78799418	     -7.49999987	     -8.47220795	      5.68319199	     -1.84110508	      3.24368450	    -13.53583345	      9.93287418	     23.30260705	     85.16695409	     11.39812644	     -7.21950824	     10.42724754	     24.30878193	     80.95899455
     45.63333330	     -4.36019201	     -4.27432107	     -3.16266043	      1.12851355	      0.90517976	      0.72201905	     26.47369874	      4.44900025	      5.83591439	     14.53565663	      0.25369507	      2.35047556	      2.85790444	     -7.49999987	     -5.68371804	     -5.78397660	     -2.90619648	     26.41813106	      0.46108337	     18.37164341	     -5.67957105	     -7.49999987	     -8.13627400	      6.07115607	     -1.26906984	      3.10807288	    -13.90273510	     10.09348239	     23.22512166	     85.28437544	     11.19456699	     -6.57050596	      9.70352668	     23.17053238	     80.82924967
     45.65000000	     -4.28743232	     -4.62724760	     -3.35393758	      1.13248937	      0.90473732	      0.72663546	     25.93177479	      5.13427376	      6.34982385	     15.58359990	      0.27198513	      2.54544224	      2.00734032	     -7.49999987	     -5.30615702	     -6.48648001	     -2.95748051	     29.24145738	      0.51035971	     16.33479362	     -6.69972346	     -7.49999987	     -7.85793827	      6.49465390	     -0.73714632	      3.07605629	    -14.23199970	     10.45710777	     23.16775344	     85.45813919	     10.83907080	     -6.02743617	      9.02919983	     21.94657353	     80.82717439
     45.66666670	     -4.10955235	     -5.15121996	     -3.55585276	      1.13996804	      0.90490761	      0.73210429	     25.10517636	      6.01390893	      6.82974028	     16.65050385	      0.29060611	      3.26054877	      1.21192163	     -7.49999987	     -4.84297161	     -7.39418978	     -2.94600208	     32.51342814	      0.56746637	     13.56406527	     -7.62472786	     -7.49999987	     -7.64385418	      7.12253173	     -0.28637935	      3.00714677	    -14.53714799	     10.83514770	     23.04440632	     85.53472511	     10.21944675	     -5.54727310	      8.55520201	     20.97522375	     80.85497989
     45.68333330	     -3.75061701	     -5.72838573	     -3.76709803	      1.14793270	      0.90714316	      0.73639294	     23.87135380	      6.98927448	      7.44290683	     17.70269237	      0.30897027	      4.49883331	      0.51901905	     -7.49999987	     -4.23063199	     -8.37809504	     -3.01703639	     36.39899090	      0.63528224	      9.93545414	     -8.44232786	     -7.49999987	     -7.48552649	      7.82156840	      0.08987605	      2.92422316	    -14.79408626	     11.19968009	     22.78025945	     85.58235850	      9.44694148	     -5.08633328	      8.03533095	     19.94354943	     80.90254401
     45.70000000	     -3.24760785	     -6.28826200	     -3.89745050	      1.15329075	      0.91069363	      0.73864119	     22.21556594	      7.94043713	      8.12051676	     18.44587603	      0.32194127	      5.89766055	      0.00736683	     -7.49999987	     -3.32569690	     -9.30186239	     -2.95903597	     40.80891972	      0.71225001	      5.51762991	     -9.15804586	     -7.49999987	     -7.43205008	      8.52796735	      0.44114086	      2.77463826	    -15.00070209	     11.37756589	     22.48040589	     85.51752167	      8.58394115	     -4.63351555	      7.54258995	     19.08065367	     80.86015746
     45.71666670	     -2.67520724	     -6.65233724	     -3.90459808	      1.15542414	      0.91461990	      0.73998878	     20.31821526	      8.64079520	      8.75013426	     18.80420259	      0.32819525	      7.19320647	     -0.34019343	     -7.49999987	     -2.17075952	     -9.89616893	     -2.68455235	     45.25742969	      0.78989116	      0.97731565	     -9.81515987	     -7.49999987	     -7.42289119	      9.03638565	      0.76126060	      2.61548420	    -15.15813841	     11.37569632	     22.23165822	     85.33050390	      7.71965174	     -4.19914880	      6.93944506	     18.19920154	     80.71116271
     45.73333330	     -2.12768271	     -6.76231658	     -3.71682050	      1.15563463	      0.91725563	      0.74200629	     18.41228242	      9.00404216	      9.25200279	     18.87889591	      0.32949889	      8.26308951	     -0.55727991	     -7.49999987	     -0.75415215	    -10.13281523	     -2.30030790	     49.48789990	      0.86372679	     -3.10504200	    -10.33886707	     -7.49999987	     -7.38827378	      9.26954311	      1.03934600	      2.46658870	    -15.16036616	     10.98941392	     21.96358629	     84.77625650	      7.00827671	     -3.73186679	      5.55805093	     16.99464122	     80.34414306
     45.75000000	     -1.52859291	     -6.68445572	     -3.27082237	      1.15480455	      0.91898492	      0.74504454	     16.48465365	      9.07087263	      9.53198026	     18.75300623	      0.32730170	      9.01537124	     -0.80954491	     -7.49999987	      0.77547516	    -10.17754249	     -1.93116013	     53.40246713	      0.93204888	     -6.16040236	    -10.40346461	     -7.49999987	     -7.55952309	      9.32482039	      1.27997112	      2.27201132	    -15.20846333	     10.82403368	     22.01514613	     84.54803357	      6.15829920	     -3.58134290	      5.30423788	     16.69411342	     80.19155073
     45.76666670	     -1.07212171	     -6.29361450	     -2.63297242	      1.15415236	      0.92055490	      0.74855477	     14.75515361	      8.74295051	      9.69669762	     18.51874074	      0.32321300	      9.44427689	     -0.96611561	     -7.49999987	      2.49921366	     -9.83429754	     -1.49810593	     56.70951350	      0.98976773	     -8.42405327	    -11.18153883	     -7.49999987	     -7.63474444	      9.03313604	      1.31703270	      2.12383697	    -14.97253538	     10.33242676	     22.06167992	     84.10422991	      5.55436440	     -3.58238824	      4.73992349	     15.92189930	     79.90230644
     45.78333330	     -0.56003531	     -5.72219897	     -1.94969877	      1.15408508	      0.92285507	      0.75168102	     13.01202573	      8.19375781	      9.81208735	     18.31900678	      0.31972698	      9.97315090	     -1.05144802	     -7.49999987	      4.20106191	     -9.34127708	     -1.23090651	     59.37320494	      1.03625791	     -8.89976346	    -11.72814622	     -7.49999987	     -7.95633908	      8.52976557	      1.50222466	      1.95847307	    -14.72020394	     10.03384962	     22.03234057	     83.82535462	      5.11010139	     -3.72906996	      4.46356383	     15.52338297	     79.72670673
     45.80000000	     -0.14114895	     -4.94990498	     -1.33116539	      1.15382651	      0.92562588	      0.75419957	     11.29866029	      7.39926650	      9.79547269	     17.97886976	      0.31379047	     10.59325888	     -0.63608609	     -7.49999987	      6.11418753	     -8.63313125	     -1.05471701	     61.30375337	      1.06995234	     -8.18053864	    -12.57710393	     -7.49999987	     -8.29226575	      7.78264014	      1.77535157	      1.81912856	    -14.24877079	      9.10912896	     21.95495281	     81.39859258	      5.02957573	     -3.86636205	      4.11545158	     14.68321327	     78.07852790
     45.81666670	      0.32182297	     -4.07503396	     -0.88975774	      1.15165658	      0.92792601	      0.75769740	      9.51400416	      6.50871250	      9.77316686	     17.54281478	      0.30617988	     11.22843441	     -0.09310538	     -7.49999987	      8.13282303	     -7.89703680	     -1.08660500	     62.62014173	      1.09292765	     -6.72717689	    -13.11194959	     -7.49999987	     -8.97510205	      6.84291876	      2.22618607	      1.82415220	    -13.91991117	      8.99967149	     22.23803514	     79.82169555	      5.02826755	     -4.23068072	      4.44255798	     14.37409952	     77.09465301
